<?xml version="1.0" standalone="no"?><!DOCTYPE svg PUBLIC "-//W3C//DTD SVG 1.1//EN" "http://www.w3.org/Graphics/SVG/1.1/DTD/svg11.dtd"><svg t="1619752549185" class="icon" viewBox="0 0 1024 1024" version="1.1" xmlns="http://www.w3.org/2000/svg" p-id="1430" xmlns:xlink="http://www.w3.org/1999/xlink" width="200" height="200"><defs><style type="text/css"></style></defs><path d="M64.638 681.745C33.358 681.745 8 707.098 8 738.372 8 769.647 33.358 795 64.638 795c31.28 0 56.637-25.353 56.637-56.628 0-31.274-25.357-56.627-56.637-56.627z m0 37.751c10.426 0 18.879 8.451 18.879 18.876s-8.453 18.876-18.88 18.876c-10.426 0-18.879-8.45-18.879-18.876 0-10.425 8.453-18.876 18.88-18.876z" fill="#FFE36B" p-id="1431"></path><path d="M925.57 134c14.139 0 25.6 11.462 25.6 25.6v19.805h19.813c14.139 0 25.6 11.462 25.6 25.6v9.34c0 14.139-11.461 25.6-25.6 25.6H951.17l0.001 19.805c0 13.998-11.233 25.371-25.177 25.597l-0.423 0.003h-9.35c-14.14 0-25.6-11.461-25.6-25.6v-19.805h-19.814c-14.138 0-25.6-11.461-25.6-25.6v-9.34c0-14.138 11.462-25.6 25.6-25.6h19.813V159.6c0-13.997 11.234-25.37 25.177-25.597l0.423-0.003z" fill="#FFE46F" opacity=".679" p-id="1432"></path><path d="M923.623 549.956H947c35.346 0 64 28.654 64 64v23.35c0 35.347-28.654 64-64 64h-23.377c-35.346 0-64-28.653-64-64v-23.35c0-35.346 28.654-64 64-64z" fill="#FFDF56" opacity=".214" p-id="1433"></path><path d="M366.55 247.255c40.156 0 78.215 8.981 112.285 25.046-67.68 53.565-111.102 136.464-111.102 229.512 0 99.853 50.005 188.018 126.32 240.783-37.787 20.929-81.255 32.842-127.503 32.842-145.698 0-263.81-118.238-263.81-264.091 0-145.854 118.112-264.092 263.81-264.092z" fill="#9C68F2" p-id="1434"></path><path d="M367.022 247.255c9.739 0 19.354 0.527 28.82 1.553-122.44 13.808-217.593 117.637-217.593 243.675 0 135.435 109.872 245.227 245.405 245.227 45.215 0 87.573-12.218 123.949-33.531-47.25 44.197-110.752 71.259-180.58 71.259-145.96 0-264.284-118.238-264.284-264.091 0-145.854 118.324-264.092 264.283-264.092z" fill="#FFE36B" p-id="1435"></path><path d="M594.719 275.055c-68.97 41.9-114.794 115.982-114.794 200.383 0 130.714 109.91 236.678 245.491 236.678 18.832 0 37.343-2.042 55.274-6.017a233.007 233.007 0 0 1-6.217 3.588c-34.835 19.395-74.075 29.715-114.877 29.715C528.927 739.402 423 633.438 423 502.724c0-107.185 71.226-197.728 168.914-226.851z m275.84 426.234l4.51 9.295-3.665-1.305c-23.554-8.366-41.572-12.937-55.643-13.697a248.114 248.114 0 0 0 42.847-21.292c0.33-0.205 0.663-0.406 1-0.601 2.545 8.22 6.194 17.362 10.95 27.6z" fill="#FFE36B" p-id="1436"></path><path d="M896.695 502.48c0 38.144-9.045 74.93-26.148 108.046a235.592 235.592 0 0 1-9.007 15.896l-1.668 2.988c-2.112 4.226-3.41 8.84-3.896 13.953-6.533 0.518-11.926 2.248-16.482 5.193a207.903 207.903 0 0 1-11.855 7.116c-30.612 17.017-65.095 26.073-100.952 26.073-114.83 0-207.919-92.974-207.919-207.663 0-103.79 76.237-189.796 175.833-205.205 114.3 16.581 202.094 114.852 202.094 233.603z" fill="#5F69F3" p-id="1437"></path><path d="M659.994 266.818c10.629 0 21.093 0.703 31.35 2.066-98.16 16.43-172.982 102.099-172.982 205.313 0 114.963 92.823 208.158 207.326 208.158 35.754 0 70.14-9.077 100.665-26.134a207.09 207.09 0 0 0 11.82-7.133c4.755-3.09 10.424-4.846 17.355-5.271-0.944 8.558 0.42 18.52 4.095 30.41-0.336 0.195-0.669 0.396-0.998 0.602a247.811 247.811 0 0 1-42.764 21.281c-11.663-0.633-20.609 1.361-27.747 5.99a236.18 236.18 0 0 1-7.26 4.522c-17.897 3.97-36.371 6.01-55.166 6.01-135.322 0-245.022-105.903-245.022-236.542 0-84.353 45.736-158.393 114.574-200.27 20.578-5.863 42.3-9.002 64.754-9.002z" fill="#9C68F2" p-id="1438"></path><path d="M357.894 210c15.655 0 28.345 12.673 28.345 28.306 0 15.634-12.69 28.307-28.345 28.307-11.054 0-22.005 0.756-32.804 2.253C209.112 284.94 121.69 384.412 121.69 502.5c0 117.89 87.134 217.25 202.867 233.56l7.07 0.793c6.824 0.625 15.961 1.152 27.27 1.552 15.645 0.553 27.878 13.667 27.324 29.29-0.554 15.623-13.685 27.84-29.33 27.287l-16.21-0.729c-9.858-0.557-17.834-1.261-24.045-2.136C173.026 771.88 65 648.695 65 502.5 65 356.058 173.383 232.736 317.298 212.79A295.611 295.611 0 0 1 357.894 210z" fill="#303140" p-id="1439"></path><path d="M245.182 464.393m37 0l2.191 0q37 0 37 37l0 2.215q0 37-37 37l-2.191 0q-37 0-37-37l0-2.215q0-37 37-37Z" fill="#303140" p-id="1440"></path><path d="M660.671 210c161.8 0 292.965 130.93 292.965 292.44 0 47.19-11.228 92.83-32.447 133.892a291.723 291.723 0 0 1-6.93 12.636l-1 1.708 0.528 2.054c0.861 3.095 2.198 6.942 4.014 11.465l0.263 0.651 4.871 11.15c6.85 14.788 16.827 33.443 29.895 55.845l11.957 20.118c14.282 23.625-10.292 51.602-35.624 40.556-31.398-13.692-57.22-24.062-77.314-31.078l-13.994-4.633c-9.93-3.078-17.63-4.934-23.044-5.665l-3.413 2.116-8.437 4.872c-43.165 23.982-91.832 36.754-142.29 36.754-161.8 0-292.965-130.93-292.965-292.44S498.871 210 660.671 210z m-0.806 55.875c-130.648 0-236.56 105.999-236.56 236.754 0 130.756 105.912 236.755 236.56 236.755 40.796 0 80.03-10.324 114.859-29.725a236.442 236.442 0 0 0 13.487-8.113c15.762-10.21 40.324-7.613 83.429 7.705l3.665 1.306-4.51-9.299c-15.529-33.44-19.265-55.206-11.225-71.326l1.67-2.997a236.417 236.417 0 0 0 9.014-15.942c17.118-33.214 26.171-70.108 26.171-108.364 0-130.755-105.911-236.754-236.56-236.754z m253.361 384.673l-3.204 5.482c1.084-1.75 2.15-3.512 3.196-5.285l0.04-0.069-0.032-0.128z" fill="#303140" p-id="1441"></path><path d="M546.859 464.393m37 0l2.191 0q37 0 37 37l0 2.215q0 37-37 37l-2.191 0q-37 0-37-37l0-2.215q0-37 37-37Z" fill="#303140" p-id="1442"></path><path d="M697.182 464.393m37 0l2.191 0q37 0 37 37l0 2.215q0 37-37 37l-2.191 0q-37 0-37-37l0-2.215q0-37 37-37Z" fill="#303140" p-id="1443"></path></svg>