<?xml version="1.0" standalone="no"?><!DOCTYPE svg PUBLIC "-//W3C//DTD SVG 1.1//EN" "http://www.w3.org/Graphics/SVG/1.1/DTD/svg11.dtd"><svg t="1638783139126" class="icon" viewBox="0 0 1024 1024" version="1.1" xmlns="http://www.w3.org/2000/svg" p-id="2352" xmlns:xlink="http://www.w3.org/1999/xlink" width="200" height="200"><defs><style type="text/css"></style></defs><path d="M854.8 483.2v381L735 842l-52.8-63.3-222.4-247.3 188.8-134.2c94.6 124.9 97.6 94.4 97.6 94.4s46.7-69.8 106.7-9.8l1.9 1.4z" fill="#CCCCCC" p-id="2353"></path><path d="M397.7 454.4l392.6 505.3c-2.3 0.2-4.6 0.3-6.9 0.3H141.5l256.2-505.6z" fill="#518EF8" p-id="2354"></path><path d="M648.7 397.3l-584 491.5V241.4c0-39.4 32-71.3 71.3-71.3h425.9c-18.3 31.4 49.5 51.6 49.5 90.6 0 39.2 18.7 105 37.3 136.6z" fill="#28B446" p-id="2355"></path><path d="M854.8 864.2v24.6c0 37-28.3 67.5-64.4 71L461.8 635.5l79.5-80.6L724.9 736l10.1 10 119.8 118.2z" fill="#F2F2F2" p-id="2356"></path><path d="M628.4 466.6l-87.1 88.3-79.5 80.6-320.3 324.6H136c-39.4 0-71.3-32-71.3-71.3l497.6-504.2c9.3 16 73.4-0.2 86.4 12.7l23.9 30.8c11.7 12.4-54.2 25.3-44.2 38.5z" fill="#FFD837" p-id="2357"></path><path d="M251 462.6c-62.7 0-113.7-51-113.7-113.7s51-113.7 113.7-113.7c30.3 0 58.9 11.8 80.4 33.3L305 294.9c-14.4-14.4-33.6-22.4-54-22.4-42.1 0-76.4 34.3-76.4 76.4s34.3 76.4 76.4 76.4c35.7 0 65.8-24.6 74.1-57.8H251v-37.3h113.7v18.6c0 62.8-51 113.8-113.7 113.8z" fill="#FFFFFF" p-id="2358"></path><path d="M561.9 170c36.9-63.5 105.6-106.1 184.4-106.1 117.7 0 213.1 95.4 213.1 213.1 0 29.5-6 57.6-16.8 83.2-10.8 25.4-26.4 48.4-45.9 67.9-16.1 17.2-30.6 35.3-43.7 53.8-85.3 121.5-106.7 260.3-106.7 260.3S723 591.5 628.4 466.6c-10-13.2-20.9-26.2-32.5-38.6-13.1-13-24.4-27.6-33.7-43.5-18.5-31.6-29.1-68.3-29.1-107.6 0-38.9 10.5-75.4 28.8-106.9z" fill="#F14336" p-id="2359"></path><path d="M746.2 163.6c62.6 0 113.4 50.8 113.4 113.4s-50.8 113.4-113.4 113.4S632.8 339.6 632.8 277s50.8-113.4 113.4-113.4z" fill="#7E2D25" p-id="2360"></path></svg>