<?xml version="1.0" standalone="no"?><!DOCTYPE svg PUBLIC "-//W3C//DTD SVG 1.1//EN" "http://www.w3.org/Graphics/SVG/1.1/DTD/svg11.dtd"><svg t="1619753844628" class="icon" viewBox="0 0 1024 1024" version="1.1" xmlns="http://www.w3.org/2000/svg" p-id="759" xmlns:xlink="http://www.w3.org/1999/xlink" width="200" height="200"><defs><style type="text/css"></style></defs><path d="M512 438.857143m-365.714286 0a365.714286 365.714286 0 1 0 731.428572 0 365.714286 365.714286 0 1 0-731.428572 0Z" fill="#F9E767" p-id="760"></path><path d="M419.023238 570.88l-35.961905 35.34019-38.424381-13.641142 48.347429-48.347429z" fill="#EAEAEA" p-id="761"></path><path d="M376.368762 618.617905c-0.609524 0-1.243429 0-1.852952-0.621715l-38.326858-13.641142c-1.865143-0.609524-3.718095-2.474667-3.718095-4.33981a4.998095 4.998095 0 0 1 1.852953-5.571048l48.225523-48.347428a5.607619 5.607619 0 0 1 4.327619-1.865143 5.607619 5.607619 0 0 1 4.327619 1.865143l25.965715 26.026667a5.997714 5.997714 0 0 1 0 8.679619l-35.864381 35.961904c-1.852952 1.219048-3.08419 1.852952-4.937143 1.852953z m-27.209143-22.308572l25.965714 9.289143 28.440381-28.513524-17.310476-17.359238-37.095619 36.571429z" fill="#663210" p-id="762"></path><path d="M437.052952 540.854857c9.020952 9.020952 9.020952 23.100952 0 32.121905l-14.09219 14.08c-9.020952 9.020952-23.100952 9.020952-32.109714 0l-27.062858-27.050667a22.454857 22.454857 0 0 1 0-32.109714l14.092191-14.092191c9.020952-9.020952 23.113143-9.020952 32.121905 0l27.062857 27.050667z" fill="#EAEAEA" p-id="763"></path><path d="M449.01181 542.110476l-27.916191-27.940571a23.649524 23.649524 0 0 0-33.840762 0l-14.848 14.262857c-1.194667 1.194667-2.377143 2.389333-2.974476 3.571809 2.377143 5.351619 5.351619 10.105905 10.093714 14.860191l38.009905 38.034286c3.559619 3.57181 8.313905 7.143619 13.06819 8.923428 1.77981-1.194667 2.962286-1.77981 4.144762-3.571809l14.860191-14.860191c8.899048-8.911238 8.899048-23.771429-0.609524-33.28z" fill="#D4D6D6" p-id="764"></path><path d="M418.645333 593.822476c-6.582857 0-13.165714-2.499048-17.712762-7.484952l-24.283428-23.942095c-9.630476-9.472-9.630476-25.429333 0-35.401143l12.641524-12.470857a25.953524 25.953524 0 0 1 17.712762-7.484953c6.582857 0 13.165714 2.499048 17.712761 7.484953l24.283429 23.942095c9.618286 9.472 9.618286 25.429333 0 35.401143l-12.141714 12.970666a26.721524 26.721524 0 0 1-18.212572 6.985143z m-11.641904-75.812571c-4.047238 0-8.094476 1.499429-10.630096 4.486095l-12.641523 12.470857c-6.070857 5.985524-6.070857 15.469714 0 20.955429l24.283428 23.929904c5.571048 5.485714 15.689143 5.485714 21.248 0l12.653714-12.458666c6.070857-5.985524 6.070857-15.469714 0-20.955429l-24.283428-23.942095c-2.535619-2.986667-6.582857-4.486095-10.630095-4.486095z" fill="#663210" p-id="765"></path><path d="M827.087238 173.165714a46.409143 46.409143 0 0 1 0 65.316572l-329.508571 329.508571a46.409143 46.409143 0 0 1-65.316572 0l-36.985905-36.998095a46.409143 46.409143 0 0 1 0-65.328762L724.760381 136.167619a46.409143 46.409143 0 0 1 65.328762 0l36.998095 36.998095z" fill="#EAEAEA" p-id="766"></path><path d="M827.270095 175.201524l-2.852571-2.876953a49.798095 49.798095 0 0 1-12.556191 21.857524L470.918095 538.721524c-13.677714 13.799619-34.779429 17.822476-51.882666 10.349714l18.809904 18.980572a45.482667 45.482667 0 0 0 64.438857 0l324.998096-327.862858c17.67619-17.822476 17.67619-47.164952 0-64.987428z" fill="#D4D6D6" p-id="767"></path><path d="M790.588952 135.862857c-17.737143-17.505524-46.921143-17.505524-64.658285 0l-64.670477 63.804953c-17.737143 17.493333-32.048762 33.304381-31.475809 35.571809 0.572952 1.694476 15.457524 17.493333 33.194667 34.998857l31.475809 31.061334 32.621714 32.182857s14.872381-14.116571 32.609524-31.622096l67.535238-66.620952a44.897524 44.897524 0 0 0 0-63.804952l-36.632381-35.57181z" fill="#3AD0F9" p-id="768"></path><path d="M691.760762 304.225524l28.879238 29.257143 94.817524-96.036572c16.896-17.103238 16.896-45.263238 0-62.366476l-2.730667-2.755048a47.835429 47.835429 0 0 1-11.983238 20.967619l-108.982857 110.933334z" fill="#00B3F9" p-id="769"></path><path d="M723.675429 333.482667a4.790857 4.790857 0 0 1-3.693715-1.584762l-88.624762-88.624762a5.095619 5.095619 0 0 1 0-7.387429 5.095619 5.095619 0 0 1 7.387429 0l88.624762 88.624762a5.095619 5.095619 0 0 1 0 7.387429 4.790857 4.790857 0 0 1-3.693714 1.584762zM709.814857 407.868952a5.13219 5.13219 0 0 1-3.961905-1.706666 5.485714 5.485714 0 0 1 0-7.948191l137.069715-137.301333c26.051048-26.087619-1.706667-56.173714-5.095619-59.574857L806.107429 169.569524a5.485714 5.485714 0 0 1 0-7.948191 5.473524 5.473524 0 0 1 7.923809 0l31.719619 31.780572c14.726095 14.750476 32.853333 47.664762 5.095619 75.459047L713.788952 406.162286a5.13219 5.13219 0 0 1-3.974095 1.706666z" fill="#663210" p-id="770"></path><path d="M468.601905 569.027048a50.70019 50.70019 0 0 1-36.059429-14.652953l-36.059428-36.059428a50.70019 50.70019 0 0 1-14.652953-36.071619c0-13.531429 5.071238-26.477714 14.652953-36.059429L717.677714 124.988952a50.70019 50.70019 0 0 1 36.071619-14.652952c13.519238 0 26.477714 5.071238 36.059429 14.652952l36.059428 36.059429a50.70019 50.70019 0 0 1 14.652953 36.059429c0 13.531429-5.071238 26.489905-14.652953 36.071619L504.685714 554.374095c-9.581714 9.020952-22.54019 14.652952-36.059428 14.652953zM754.322286 121.6c-10.715429 0-20.284952 3.949714-28.184381 11.27619L404.931048 454.070857c-7.314286 7.326476-11.264 17.468952-11.264 28.172191 0 10.715429 3.937524 20.284952 11.264 27.611428l36.071619 36.071619c7.314286 7.314286 17.468952 11.264 27.611428 11.264 10.703238 0 20.284952-3.937524 28.16-11.264l321.219048-321.194666c7.314286-7.326476 11.264-17.468952 11.264-28.184381 0-10.703238-3.949714-20.284952-11.276191-28.172191l-36.059428-36.059428a40.228571 40.228571 0 0 0-27.611429-10.715429z" fill="#663210" p-id="771"></path><path d="M733.45219 172.324571a4.096 4.096 0 0 1-3.145142-1.353142 4.352 4.352 0 0 1 0-6.314667l15.774476-15.774476a4.352 4.352 0 0 1 6.314666 0 4.352 4.352 0 0 1 0 6.302476l-15.786666 15.786667c-0.451048 0.902095-1.80419 1.340952-3.157334 1.340952zM672.304762 234.300952a4.815238 4.815238 0 0 1-3.742476-1.609142 5.241905 5.241905 0 0 1 0-7.558096l38.92419-38.802285a5.12 5.12 0 0 1 7.460572 0 5.241905 5.241905 0 0 1 0 7.558095l-38.924191 38.802286a4.815238 4.815238 0 0 1-3.730286 1.609142zM499.2 395.459048a5.241905 5.241905 0 0 1-4.059429-1.743238 5.64419 5.64419 0 0 1 0-8.143239l112.396191-112.335238a5.583238 5.583238 0 0 1 8.106667 0c2.31619 2.328381 2.31619 5.827048 0 8.155429l-112.396191 112.323048a5.241905 5.241905 0 0 1-4.047238 1.755428zM412.257524 482.255238a5.12 5.12 0 0 1-3.937524-1.706667 5.449143 5.449143 0 0 1 0-7.887238l50.712381-50.712381a5.449143 5.449143 0 0 1 7.887238 0 5.449143 5.449143 0 0 1 0 7.887238l-50.712381 50.712381c-0.560762 1.133714-2.255238 1.706667-3.949714 1.706667z" fill="#FFFFFF" p-id="772"></path><path d="M847.323429 668.208762H684.958476c-3.352381 0-5.607619-2.486857-5.607619-6.204952 0-3.718095 2.255238-6.192762 5.607619-6.192762h162.364953c3.352381 0 5.607619 2.474667 5.607619 6.192762s-2.255238 6.204952-5.607619 6.204952zM611.681524 668.208762H213.955048c-3.413333 0-5.680762-2.486857-5.680762-6.204952 0-3.718095 2.267429-6.192762 5.680762-6.192762h397.726476c3.413333 0 5.692952 2.474667 5.692952 6.192762s-2.279619 6.204952-5.692952 6.204952z" fill="#663210" p-id="773"></path><path d="M437.162667 519.43619a5.302857 5.302857 0 0 1-4.022857-1.657904 5.217524 5.217524 0 0 1 0-7.753143l224.060952-212.077714a5.692952 5.692952 0 0 1 8.045714 0 5.217524 5.217524 0 0 1 0 7.753142L441.173333 517.778286a5.302857 5.302857 0 0 1-4.022857 1.657904z" fill="#D4D6D6" p-id="774"></path><path d="M344.636952 308.687238a24.612571 24.612571 0 0 1-24.795428-24.795428c0-13.83619 10.959238-24.795429 24.795428-24.795429 13.83619 0 24.795429 10.959238 24.795429 24.795429a24.612571 24.612571 0 0 1-24.795429 24.795428z m0-37.473524a13.04381 13.04381 0 0 0-13.263238 13.251048 13.04381 13.04381 0 0 0 13.263238 13.263238 13.04381 13.04381 0 0 0 13.263238-13.263238 13.04381 13.04381 0 0 0-13.263238-13.251048zM642.169905 618.617905a24.612571 24.612571 0 0 1-24.795429-24.795429c0-13.83619 10.959238-24.795429 24.795429-24.795428 13.83619 0 24.795429 10.959238 24.795428 24.795428-0.572952 13.263238-11.53219 24.795429-24.795428 24.795429z m0-38.058667a13.04381 13.04381 0 0 0-13.263238 13.263238 13.04381 13.04381 0 0 0 13.263238 13.263238 13.04381 13.04381 0 0 0 13.263238-13.263238c-0.572952-7.497143-6.339048-13.263238-13.263238-13.263238zM295.046095 488.448c0-2.389333-2.377143-4.766476-5.961143-5.36381l-11.312762-1.792c-2.986667-0.597333-6.558476-3.57181-6.558476-6.558476l-1.792-11.324952c-0.597333-2.974476-2.974476-5.961143-5.363809-5.961143s-4.766476 2.389333-5.36381 5.973333l-1.792 11.312762c-0.597333 2.986667-3.57181 6.558476-6.546285 6.558476l-11.337143 1.792c-2.974476 0.597333-5.948952 2.974476-5.948953 5.36381 0 2.377143 2.377143 4.754286 5.961143 5.36381l11.324953 1.779809c2.974476 0.609524 6.546286 3.584 6.546285 6.558476l1.792 11.337143c0.597333 2.974476 2.974476 5.948952 5.36381 5.948952s4.766476-2.377143 4.766476-5.961142l1.792-12.507429a9.142857 9.142857 0 0 1 6.558476-6.558476l10.727619-0.609524c4.754286-1.182476 7.143619-2.974476 7.143619-5.363809zM790.930286 513.243429c0-2.389333-2.377143-4.766476-5.961143-5.36381l-11.324953-1.792c-2.974476-0.597333-6.546286-3.57181-6.546285-6.558476l-1.792-11.324953c-0.597333-2.974476-2.974476-5.961143-5.36381-5.961142s-4.766476 2.389333-5.363809 5.973333l-1.792 11.312762c-0.597333 2.986667-3.57181 6.558476-6.558476 6.558476l-11.312762 1.792c-2.986667 0.597333-5.973333 2.974476-5.973334 5.36381 0 2.377143 2.389333 4.754286 5.973334 5.363809l11.312762 1.77981c2.986667 0.609524 6.558476 3.584 6.558476 6.558476l1.792 11.337143c0.597333 2.974476 2.974476 5.948952 5.363809 5.948952s4.766476-2.377143 4.766476-5.961143l1.792-12.519619a9.142857 9.142857 0 0 1 6.558477-6.546286l10.727619-0.609523c4.754286-1.182476 7.143619-2.974476 7.143619-5.36381zM555.398095 190.317714c0-2.377143-2.413714-4.766476-6.022095-5.363809l-10.837333-1.194667c-3.011048-0.597333-6.619429-3.57181-6.619429-6.546286l-1.80419-11.337142c-0.609524-2.974476-3.011048-5.948952-5.412572-5.948953-2.413714 0-4.815238 2.377143-5.424762 5.961143l-1.80419 11.324952c-0.609524 2.974476-3.608381 6.546286-6.619429 6.546286l-11.434666 1.792c-3.011048 0.597333-6.009905 2.974476-6.009905 5.36381s2.401524 4.766476 6.009905 5.363809l11.434666 1.792c3.011048 0.597333 6.619429 3.57181 6.619429 6.558476l1.80419 11.312762c0.609524 2.986667 3.011048 5.973333 5.424762 5.973334 2.401524 0 4.815238-2.389333 4.815238-5.973334l1.804191-12.507428a9.179429 9.179429 0 0 1 6.619428-6.558477l10.825143-0.597333c4.217905-1.194667 6.619429-3.57181 6.619429-5.961143z" fill="#FFFFFF" p-id="775"></path></svg>