<?xml version="1.0" standalone="no"?><!DOCTYPE svg PUBLIC "-//W3C//DTD SVG 1.1//EN" "http://www.w3.org/Graphics/SVG/1.1/DTD/svg11.dtd"><svg t="1619520058906" class="icon" viewBox="0 0 1024 1024" version="1.1" xmlns="http://www.w3.org/2000/svg" p-id="15507" xmlns:xlink="http://www.w3.org/1999/xlink" width="200" height="200"><defs><style type="text/css"></style></defs><path d="M390.4 819.2l-140.8-320 32-32 326.4 134.4-38.4 32-96-38.4-96 96 44.8 96-32 32z m-32-166.4L435.2 576l-83.2-38.4-64-32c12.8 19.2 19.2 38.4 32 57.6l38.4 89.6zM627.2 576L396.8 345.6 486.4 256c19.2-19.2 32-32 51.2-38.4 12.8 0 25.6 0 38.4 6.4 12.8 6.4 32 12.8 38.4 19.2 12.8 12.8 19.2 19.2 25.6 38.4 6.4 12.8 0 32 0 44.8 19.2-12.8 38.4-12.8 51.2-12.8 19.2 0 32 12.8 44.8 25.6 12.8 12.8 19.2 25.6 25.6 38.4 6.4 12.8 6.4 25.6 6.4 38.4 0 12.8-6.4 25.6-12.8 38.4s-19.2 25.6-32 38.4L627.2 576zM524.8 416l51.2-51.2c12.8-12.8 19.2-25.6 25.6-32 6.4-12.8 6.4-19.2 6.4-32 0-6.4-6.4-19.2-12.8-25.6-12.8-6.4-19.2-12.8-32-12.8-6.4 0-19.2 0-25.6 6.4-6.4 0-19.2 12.8-38.4 32l-44.8 44.8 70.4 70.4z m102.4 102.4l57.6-57.6c12.8-6.4 19.2-12.8 19.2-19.2 6.4-6.4 6.4-19.2 12.8-25.6v-25.6c0-6.4-6.4-19.2-12.8-25.6-6.4-6.4-19.2-12.8-32-12.8s-19.2 0-32 6.4c-6.4 6.4-19.2 12.8-38.4 32l-51.2 51.2 76.8 76.8z" fill="#1296db" opacity=".5" p-id="15508"></path><path d="M128 64v896h768V64H128z m704 832H192V128h640v768z" fill="#1296db" p-id="15509"></path><path d="M320 320h384v64H320zM320 512h384v64H320zM320 704h384v64H320z" fill="#1296db" p-id="15510"></path></svg>