<?xml version="1.0" standalone="no"?><!DOCTYPE svg PUBLIC "-//W3C//DTD SVG 1.1//EN" "http://www.w3.org/Graphics/SVG/1.1/DTD/svg11.dtd"><svg t="1619519930804" class="icon" viewBox="0 0 1385 1024" version="1.1" xmlns="http://www.w3.org/2000/svg" p-id="15331" xmlns:xlink="http://www.w3.org/1999/xlink" width="270.5078125" height="200"><defs><style type="text/css"></style></defs><path d="M1194.203274 943.78473H191.159669C85.589237 943.78473 0 858.195494 0 752.625061V273.553574C0 167.962393 85.589237 82.373156 191.159669 82.373156h1003.043605c105.570433 0 191.159669 85.589237 191.15967 191.159669v479.071487c0 105.591182-85.589237 191.180418-191.15967 191.180418z m81.605447-196.616631V278.989788c0-48.075215-38.987194-87.062409-87.062409-87.062409H194.292754c-48.075215 0-87.062409 38.987194-87.062409 87.062409V747.168099c0 48.075215 38.987194 87.062409 87.062409 87.062408h994.453558c48.075215 0 87.062409-38.987194 87.062409-87.062408z" p-id="15332" fill="#1296db"></path><path d="M327.770465 523.577889h1.535419l50.004863-144.30864h87.435889v267.640137h-55.75231v-198.152051h-1.535419l-59.570108 166.074242h-48.095964l-58.802399-166.074242h-2.28238v198.152051H187.279624V379.269249h89.718269l50.772572 144.30864zM654.192252 379.269249l81.314961 267.640137h-61.084778l-16.806614-61.458259H567.897552l-17.180094 61.458259h-58.802399l80.941482-267.640137h81.335711z m-72.911655 158.065165h62.993678l-10.312207-37.410277c-10.312206-37.036797-15.644675-56.499271-20.230183-80.173772h-1.535419c-4.585508 22.906792-10.312206 44.672394-19.856703 78.659102l-11.059166 38.924947zM846.991084 379.269249c59.175879 0 92.768358 22.533312 92.768358 78.638354 0 46.581294-25.189172 68.346896-56.49927 74.447074v1.535419c14.130005 6.867888 22.906792 16.806614 35.501378 39.319176l40.854595 73.679365H890.12806l-44.278165-87.04166c-4.958988-9.544497-12.221106-12.594586-24.442211-12.594586h-3.817799v99.656995h-57.661209V379.269249h87.062408z m-29.401199 121.796078h22.139082c30.936619 0 40.854596-13.362295 40.854596-38.177987 0-24.442211-14.503485-35.501378-40.086886-35.501378h-22.906792v73.679365zM1040.557627 646.909386h-58.40817V379.269249h58.40817v267.640137z m80.920733-267.640137h67.184957l-83.223862 130.199384 91.627168 137.440753h-72.932404l-82.082671-134.764144v-1.535419l79.426812-131.340574z" p-id="15333" fill="#1296db"></path></svg>