<?xml version="1.0" standalone="no"?><!DOCTYPE svg PUBLIC "-//W3C//DTD SVG 1.1//EN" "http://www.w3.org/Graphics/SVG/1.1/DTD/svg11.dtd"><svg t="1616692331226" class="icon" viewBox="0 0 1024 1024" version="1.1" xmlns="http://www.w3.org/2000/svg" p-id="2109" xmlns:xlink="http://www.w3.org/1999/xlink" width="200" height="200"><defs><style type="text/css"></style></defs><path d="M1024 253.978947v516.042106a78.282105 78.282105 0 0 1-0.875789 8.825263 568.387368 568.387368 0 0 1-6.736843 62.517895c-15.157895 77.541053-59.284211 132.311579-132.311579 163.166315A256 256 0 0 1 801.684211 1021.978947c-10.576842 0.741053-21.221053 1.347368-31.797895 2.021053H253.978947c-4.581053-0.336842-9.229474-0.808421-13.877894-0.943158a342.972632 342.972632 0 0 1-67.368421-8.151579c-73.431579-17.852632-125.103158-61.844211-153.936843-131.84A261.254737 261.254737 0 0 1 2.021053 801.684211c-0.808421-10.913684-1.347368-21.894737-2.021053-32.808422V254.989474a87.983158 87.983158 0 0 1 0.875789-9.364211c2.021053-21.018947 2.425263-42.374737 6.736843-62.989474C22.433684 105.094737 66.627368 50.324211 139.587368 19.469474A256 256 0 0 1 222.315789 2.021053c10.576842-0.741053 21.221053-1.347368 31.797895-2.021053h516.042105c4.446316 0.336842 8.892632 0.808421 13.473685 0.943158a341.962105 341.962105 0 0 1 67.772631 8.151579C924.833684 26.947368 976.842105 70.938947 1005.338947 141.002105a259.637895 259.637895 0 0 1 16.909474 80.842106c0.471579 10.981053 1.077895 21.557895 1.751579 32.134736z" fill="#FFFFFF" p-id="2110"></path><path d="M1005.338947 141.002105C976.842105 70.938947 924.833684 26.947368 851.402105 9.094737a343.578947 343.578947 0 0 0-42.981052-6.736842v1019.216842a256 256 0 0 0 75.654736-17.044211c73.027368-30.854737 117.153684-85.625263 132.311579-163.166315a568.387368 568.387368 0 0 0 6.736843-62.517895 78.282105 78.282105 0 0 0 0.875789-8.825263V253.978947c-0.673684-10.576842-1.28-21.153684-1.751579-32.134736a259.637895 259.637895 0 0 0-16.909474-80.842106z" fill="#74AFFF" p-id="2111"></path><path d="M0 768.875789c0.673684 10.913684 1.212632 21.894737 2.021053 32.808422a261.254737 261.254737 0 0 0 16.774736 81.381052c28.833684 69.995789 80.842105 113.785263 153.936843 131.84a342.972632 342.972632 0 0 0 67.368421 8.151579c4.648421 0 9.296842 0.606316 13.877894 0.943158H262.736842v-262.736842H0z" fill="#FFF59F" p-id="2112"></path><path d="M808.421053 2.425263c-8.218947-0.741053-16.505263-1.347368-24.791579-1.482105-4.581053 0-9.027368-0.606316-13.473685-0.943158H707.368421v1024h62.517895c10.576842-0.673684 21.221053-1.28 31.797895-2.021053l6.736842-0.40421z" fill="#CCCCCC" p-id="2113"></path><path d="M808.421053 2.425263c-8.218947-0.741053-16.505263-1.347368-24.791579-1.482105-4.581053 0-9.027368-0.606316-13.473685-0.943158h-516.042105c-10.576842 0.673684-21.221053 1.28-31.797895 2.021053a256 256 0 0 0-82.728421 17.448421C66.627368 50.324211 22.433684 105.094737 7.275789 182.635789c-3.974737 20.614737-4.378947 41.970526-6.4 62.989474A87.983158 87.983158 0 0 0 0 254.989474V350.315789h808.421053z" fill="#C695FF" p-id="2114"></path><path d="M350.315789 0H254.113684L229.052632 1.616842v1020.901053c3.705263 0 7.343158 0.471579 11.048421 0.538947s9.162105 0.943158 13.877894 0.943158H350.315789z" fill="#FFD29F" p-id="2115"></path><path d="M0 262.736842h1024v87.578947H0z" fill="#FFFFFF" p-id="2116"></path><path d="M0 700.631579v68.24421c0.673684 10.913684 1.212632 21.894737 2.021053 32.808422a258.762105 258.762105 0 0 0 6.736842 47.157894h1005.945263c0.606316-2.492632 1.212632-4.917895 1.68421-7.477894a568.387368 568.387368 0 0 0 6.736843-62.517895 78.282105 78.282105 0 0 0 0.875789-8.825263V700.631579z" fill="#FBD33B" p-id="2117"></path><path d="M651.991579 849.111579l-214.501053-131.368421-104.757894 86.433684 41.566315-131.368421 419.098948-432.370526-475.621053 410.745263L141.473684 536.454737l660.210527-307.671579-149.692632 620.328421z" fill="#028ED6" p-id="2118"></path></svg>