<?xml version="1.0" standalone="no"?><!DOCTYPE svg PUBLIC "-//W3C//DTD SVG 1.1//EN" "http://www.w3.org/Graphics/SVG/1.1/DTD/svg11.dtd"><svg t="1617435306443" class="icon" viewBox="0 0 1024 1024" version="1.1" xmlns="http://www.w3.org/2000/svg" p-id="51735" xmlns:xlink="http://www.w3.org/1999/xlink" width="200" height="200"><defs><style type="text/css"></style></defs><path d="M256 426.432c0-62.208 24.256-121.92 67.456-165.888A227.904 227.904 0 0 1 486.4 192h307.2C920.832 192 1024 297.408 1024 426.432V896H486.4C359.168 896 256 790.592 256 661.568V426.432z" fill="#3255FF" fill-opacity=".201" p-id="51736"></path><path d="M85.312 383.744a255.552 255.552 0 0 1 256-255.744h341.376c141.312 0 256 115.008 256 255.744V896H341.312c-141.312 0-256-115.008-256-255.744V383.744z m768 426.88v-426.88a170.88 170.88 0 0 0-170.624-170.432H341.312a170.24 170.24 0 0 0-170.624 170.432v256.512a170.88 170.88 0 0 0 170.624 170.432h512z m-256-341.312h85.376v85.376H597.312V469.312z m-256 0h85.376v85.376H341.312V469.312z" fill="#000000" p-id="51737"></path></svg>