<?xml version="1.0" standalone="no"?><!DOCTYPE svg PUBLIC "-//W3C//DTD SVG 1.1//EN" "http://www.w3.org/Graphics/SVG/1.1/DTD/svg11.dtd"><svg t="1645357970826" class="icon" viewBox="0 0 1024 1024" version="1.1" xmlns="http://www.w3.org/2000/svg" p-id="4315" xmlns:xlink="http://www.w3.org/1999/xlink" width="200" height="200"><defs><style type="text/css"></style></defs><path d="M783.021 626.421a90.736 90.736 0 0 0-26.362-64.621 90.641 90.641 0 0 0-64.455-26.778H584.237c-30.424 0-55.085-24.673-55.085-55.081a53.751 53.751 0 0 1 24.123-45.658 182.505 182.505 0 0 0 18.196-13.162c-1.487-0.302-2.91-0.83-4.386-1.169-5.793-1.32-11.5-2.812-17.106-4.563-2.952-0.939-5.85-2.012-8.759-3.061a221.185 221.185 0 0 1-13.103-5.175c-2.785-1.208-5.567-2.408-8.29-3.721-4.983-2.414-9.841-5.04-14.61-7.787-1.786-1.034-3.646-1.945-5.411-3.031-6.018-3.706-11.797-7.752-17.402-11.982-2.398-1.809-4.685-3.747-7.015-5.651-3.505-2.882-6.928-5.835-10.249-8.916-2.356-2.188-4.7-4.365-6.956-6.645-3.577-3.604-6.956-7.376-10.266-11.208a215.308 215.308 0 0 1-7.352-8.929c-3.352-4.314-6.601-8.723-9.639-13.281-1.776-2.663-3.421-5.402-5.083-8.147a219.781 219.781 0 0 1-6.8-12.082c-0.937-1.782-2.059-3.421-2.955-5.237-0.468-0.951-0.765-1.947-1.22-2.896-3.039-6.417-5.834-12.957-8.263-19.672-0.81-2.258-1.405-4.557-2.144-6.834-1.59-4.904-3.066-9.854-4.33-14.895-0.78-3.13-1.433-6.26-2.073-9.411-0.892-4.331-1.616-8.705-2.241-13.112-0.47-3.244-0.97-6.475-1.292-9.732-0.482-5.067-0.711-10.208-0.853-15.359-0.794-27.506 3.224-55.113 12.592-81.408a223.079 223.079 0 0 1 9.952-23.609c-71.592 16.27-126.339 74.05-138.746 146.425-12.394 72.348 19.992 145.063 82.072 184.245a53.799 53.799 0 0 1 24.322 45.658c0 30.408-24.661 55.082-55.084 55.082H218.432c-49.335 0-89.328 39.979-89.328 89.312a92.76 92.76 0 0 0 27.187 65.605 92.775 92.775 0 0 0 65.604 27.185h470.413c50.095 0.005 90.713-40.612 90.713-90.699zM747.19 788.877c0-20.057-16.258-36.314-36.316-36.314H202.142c-20.059 0-36.315 16.258-36.315 36.314 0 20.059 16.255 36.331 36.315 36.331h508.731c20.06 0 36.317-16.271 36.317-36.331z" fill="#A87DFF" opacity=".4" p-id="4316"></path><path d="M393.675 208.627c0.142 5.124 0.356 10.249 0.852 15.359 0.324 3.258 0.823 6.488 1.293 9.732 0.622 4.386 1.347 8.759 2.24 13.111 0.641 3.149 1.293 6.28 2.074 9.411 1.248 5.006 2.74 9.967 4.328 14.893 0.74 2.279 1.335 4.579 2.145 6.835 2.399 6.658 5.21 13.205 8.264 19.67 0.452 0.951 0.75 1.945 1.217 2.896 0.895 1.817 2.015 3.457 2.955 5.24a229.175 229.175 0 0 0 6.801 12.081c1.659 2.747 3.306 5.486 5.083 8.148 3.039 4.572 6.289 8.973 9.641 13.281a216.256 216.256 0 0 0 7.352 8.929c3.31 3.84 6.704 7.611 10.266 11.208 2.256 2.28 4.601 4.457 6.954 6.645a218.64 218.64 0 0 0 10.25 8.917c2.332 1.903 4.617 3.841 7.015 5.65 5.624 4.236 11.401 8.29 17.404 11.982 1.763 1.084 3.622 1.995 5.409 3.03 4.785 2.756 9.628 5.38 14.611 7.788 2.724 1.313 5.506 2.512 8.291 3.72a222.86 222.86 0 0 0 13.101 5.175c2.908 1.049 5.809 2.12 8.761 3.058 5.607 1.76 11.328 3.245 17.106 4.566 1.475 0.34 2.896 0.866 4.385 1.169 0.088 0.023 0.173 0.051 0.258 0.072 42.077-34.483 66.441-86.03 66.398-140.433 0.059-55.283-25.087-107.554-68.271-142.053a181.592 181.592 0 0 0-153.639-35.095 220.856 220.856 0 0 0-9.953 23.609c-9.37 26.291-13.387 53.896-12.591 81.406z" fill="#B997FC" opacity=".4" p-id="4317"></path><path d="M445.081 622.248H334.729c-49.333 0-89.327 39.978-89.327 89.313a92.742 92.742 0 0 0 27.186 65.601 92.749 92.749 0 0 0 65.605 27.186h470.413c50.098 0 90.719-40.616 90.719-90.703a90.769 90.769 0 0 0-26.365-64.625 90.63 90.63 0 0 0-64.453-26.772H700.539c-30.426 0-55.086-24.675-55.086-55.086a53.749 53.749 0 0 1 24.121-45.657 182.577 182.577 0 0 0 18.255-13.203c-103.763-21.537-178.138-112.949-178.138-218.915a222.499 222.499 0 0 1 22.828-98.554c-71.593 16.27-126.337 74.052-138.746 146.426-12.395 72.348 19.988 145.064 82.073 184.247a53.779 53.779 0 0 1 24.318 45.657c0.001 30.412-24.66 55.085-55.083 55.085zM827.171 912.432c20.059 0 36.316-16.269 36.316-36.331s-16.255-36.316-36.316-36.316H318.445c-20.059 0-36.314 16.254-36.314 36.316s16.255 36.331 36.314 36.331h508.726z" fill="#A87DFF" p-id="4318"></path><path d="M688.029 508.419c42.082-34.484 66.442-86.032 66.398-140.435 0.058-55.282-25.085-107.554-68.271-142.053a181.59 181.59 0 0 0-153.638-35.097c-30.509 62.083-30.551 134.8-0.127 196.924 30.421 62.128 87.892 106.679 155.638 120.661z" fill="#B997FC" p-id="4319"></path></svg>