<?xml version="1.0" encoding="UTF-8"?>
<svg width="64px" height="64px" viewBox="0 0 64 64" version="1.1" xmlns="http://www.w3.org/2000/svg" xmlns:xlink="http://www.w3.org/1999/xlink">
    <title>logo</title>
    <g id="logo" stroke="none" stroke-width="1" fill="none" fill-rule="evenodd">
        <path d="M8,0 L56,0 C60.418278,0 64,3.581722 64,8 L64,56 C64,60.418278 60.418278,64 56,64 L8,64 C3.581722,64 0,60.418278 0,56 L0,8 C0,3.581722 3.581722,0 8,0 Z" id="矩形" fill="#2B6DE5"></path>
        <path d="M47.6444852,24.776943 L31.004049,15.169594 C30.1528544,14.6780369 29.6285792,13.7700436 29.6285792,12.787453 L29.6285792,12.760755 C29.6285792,11.7797349 30.1510221,10.8730503 30.9998611,10.3809698 L31.017398,10.3707617 C31.8688544,9.87737248 32.9194987,9.8763255 33.772002,10.3686678 L50.3956866,19.9660705 C51.257351,20.4636477 51.7831966,21.3873456 51.7711059,22.3822383 L51.7701094,22.4288289 C51.7580691,23.3993792 51.2356262,24.2916678 50.3951631,24.776943 C49.5439685,25.2682383 48.4954181,25.2682383 47.6444852,24.776943" id="Fill-1" fill="#FFFFFF"></path>
        <path d="M30.9983691,27.9647872 L47.6388054,37.5721362 C48.4897383,38.0634315 49.5382886,38.0634315 50.3894832,37.5721362 L50.4125168,37.5587872 C51.2621409,37.0682772 51.7861544,36.1623779 51.7879914,35.1813577 L51.7879914,35.1612034 C51.7898188,34.1767805 51.2652819,33.2666933 50.4125168,32.774351 L33.789094,23.1769483 C32.9274295,22.6793711 31.8644832,22.6859148 31.0091007,23.1939617 L30.9690537,23.2177805 C30.1346107,23.7132638 29.6231611,24.612096 29.6231611,25.5826463 C29.6231611,26.5654987 30.1474362,27.4734919 30.9983691,27.9647872" id="Fill-3" fill="#FFFFFF"></path>
        <path d="M33.7896436,35.9756228 L17.1492074,26.3682738 C16.2980128,25.8767168 15.2494624,25.8767168 14.3985295,26.3682738 L14.375496,26.3816228 C13.5258718,26.8721329 13.0018584,27.7780322 13.0002879,28.7587906 L13.0000227,28.7792067 C12.9984557,29.7636295 13.5229926,30.6739785 14.375496,31.1660591 L30.9989188,40.7637235 C31.8605832,41.2610389 32.9235295,41.2544953 33.7789121,40.7464483 L33.8189591,40.7226295 C34.653402,40.2268846 35.1651134,39.3283141 35.1651134,38.3577638 C35.1651134,37.3751732 34.6405765,36.4669181 33.7896436,35.9756228" id="Fill-5" fill="#FFFFFF"></path>
        <path d="M17.1436584,39.163598 L33.7840946,48.770947 C34.6352893,49.2622423 35.1595644,50.1702356 35.1595644,51.1530879 L35.1595644,51.1795242 C35.1595644,52.1605443 34.6368597,53.0672289 33.7880208,53.5593094 L33.7707456,53.5695174 C32.9190275,54.0631685 31.8683832,54.0642154 31.0158799,53.5718732 L14.392457,43.9742087 C13.5307926,43.4768933 13.004947,42.5529336 13.0170378,41.5580409 L13.0177725,41.5117121 C13.0298128,40.5411617 13.5525174,39.6488732 14.3929805,39.163598 C15.2441752,38.6720409 16.2927255,38.6720409 17.1436584,39.163598" id="Fill-7" fill="#FFFFFF"></path>
    </g>
</svg>