<?xml version="1.0" standalone="no"?><!DOCTYPE svg PUBLIC "-//W3C//DTD SVG 1.1//EN" "http://www.w3.org/Graphics/SVG/1.1/DTD/svg11.dtd"><svg t="1617437414954" class="icon" viewBox="0 0 1024 1024" version="1.1" xmlns="http://www.w3.org/2000/svg" p-id="2038" xmlns:xlink="http://www.w3.org/1999/xlink" width="200" height="200"><defs><style type="text/css"></style></defs><path d="M 83.1 836.1 h 360.1 c 19.8 0 35.9 -16.2 35.9 -35.9 v -8.4 c 0 -19.8 -16.2 -35.9 -35.9 -35.9 H 83.1 c -19.8 0 -35.9 16.2 -35.9 35.9 v 8.4 c -0.1 19.7 16.1 35.9 35.9 35.9 Z m 407.2 31.6 H 35.9 c -19.7 0 -35.9 16.2 -35.9 36 v 13 c 0 19.8 16.2 35.9 35.9 35.9 h 454.4 c 19.8 0 35.9 -16.2 35.9 -35.9 v -13 c 0.1 -19.8 -16.1 -36 -35.9 -36 Z M 609.1 345.6 c 17.8 17.8 17.8 46.8 0 64.6 l -99.3 99.3 c -17.8 17.8 -46.9 17.8 -64.7 0 L 307.6 372 c -17.8 -17.8 -17.8 -46.9 0 -64.6 l 99.3 -99.3 c 17.8 -17.8 46.9 -17.8 64.7 0 l 137.5 137.5 Z" fill="#5195f7" p-id="2039"></path><path d="M 444.7 564.4 c 9.4 9.4 9.4 24.7 0 34.1 l -46.1 46.1 c -9.4 9.4 -24.7 9.4 -34.1 0 L 172.4 452.5 c -9.4 -9.4 -9.4 -24.7 0 -34.1 l 46.2 -46.1 c 9.4 -9.4 24.7 -9.4 34.1 0 l 192 192.1 Z M 744.2 265 c 9.4 9.4 9.4 24.7 0 34.1 l -46.1 46.1 c -9.4 9.4 -24.7 9.4 -34.1 0 L 471.8 153.1 c -9.4 -9.4 -9.4 -24.7 0 -34.1 L 518 72.9 c 9.4 -9.4 24.7 -9.4 34.1 0 L 744.2 265 Z" fill="#fa9415" p-id="2040"></path><path d="M 1004.5 809 c -16.2 -16.2 -38.7 -22.3 -59.7 -18.3 c -13.9 -42.4 -54.5 -102 -111.8 -159.4 c -60.6 -60.5 -123.8 -102.6 -166.5 -114 c 8.5 -19.1 8.3 -38 -2.8 -49 c -16.7 -16.7 -51.3 -9.2 -77.3 16.8 s -33.5 60.6 -16.8 77.3 c 11.1 11 30 11.3 49.1 2.8 c 11.4 42.6 53.5 105.9 114.1 166.5 c 57.3 57.3 117 97.9 159.3 111.8 c -4 20.9 2.1 43.5 18.3 59.7 c 25.9 26 68.1 26 94.1 0 c 26 -26.1 26 -68.2 0 -94.2 Z" fill="#5195f7" p-id="2041"></path></svg>